<svg
    xmlns="http://www.w3.org/2000/svg"
    width="27"
    height="23"
    viewBox="0 0 27 23"
    fill="none"
>
<path
    fill-rule="evenodd"
    clip-rule="evenodd"
    d="M12.5555 0.270549C12.1866 -0.0901833 11.5886 -0.090183 11.2197 0.27055L0.533629 10.7212C0.489678 10.7642 0.450964 10.8103 0.417487 10.8589C0.367803 10.8917 0.320597 10.9295 0.276645 10.9725C-0.0922152 11.3332 -0.0922149 11.9181 0.276645 12.2788L10.9627 22.7295C11.3316 23.0902 11.9296 23.0902 12.2985 22.7295C12.6673 22.3687 12.6673 21.7839 12.2985 21.4231L3.22481 12.5494H26.0763C26.5864 12.5494 27 12.1358 27 11.6257C27 11.1155 26.5864 10.7019 26.0763 10.7019H3.22481L12.5555 1.57688C12.9243 1.21614 12.9243 0.631282 12.5555 0.270549Z"
    fill="#464646"
/>
</svg>