<svg width="20" height="26" viewBox="0 0 20 26" fill="none" xmlns="http://www.w3.org/2000/svg">
<g id="doc-icon
">
<path id="Shape" d="M4.06654 9.66678H8.99987C9.26654 9.66678 9.5332 9.40011 9.5332 9.13345C9.5332 8.86678 9.26654 8.73345 8.99987 8.73345H4.06654C3.79987 8.73345 3.5332 9.00011 3.5332 9.26678C3.5332 9.53345 3.79987 9.66678 4.06654 9.66678Z" fill="#464646"/>
<path id="Shape_1_" d="M19 8.73333C18.7333 8.73333 18.4667 9 18.4667 9.26667V24.0667H2.06667V2.06667H13.4C13.6667 2.06667 13.9333 2.2 14.0667 2.33333L17.8 6.2H14.4667V4.06667C14.4667 3.8 14.2 3.53333 13.9333 3.53333C13.6667 3.53333 13.4 3.8 13.4 4.06667V6.46667C13.4 6.86667 13.8 7.26667 14.2 7.26667H18.3333C18.6 7.26667 18.8667 7.13333 19 6.73333C19.1333 6.46667 19 6.06667 18.8667 5.93333L14.7333 1.66667C14.3333 1.26667 13.8 1 13.2667 1H1.8C1.4 1 1 1.4 1 1.8V24.2C1 24.6 1.4 25 1.8 25H18.6C19 25 19.4 24.6 19.4 24.2V9.13333C19.5333 8.86667 19.2667 8.73333 19 8.73333Z" fill="#464646" stroke="#464646" stroke-width="0.3"/>
<path id="Shape_2_" d="M4.06654 21.4002C3.79987 21.4002 3.5332 21.6668 3.5332 21.9335C3.5332 22.2002 3.79987 22.4668 4.06654 22.4668H8.99987C9.26654 22.4668 9.5332 22.2002 9.5332 21.9335C9.5332 21.6668 9.26654 21.4002 8.99987 21.4002H4.06654Z" fill="#464646"/>
<path id="Shape_3_" d="M16.8665 19.4001C16.8665 19.1334 16.5999 18.8667 16.3332 18.8667H4.06654C3.79987 18.8667 3.5332 19.1334 3.5332 19.4001C3.5332 19.6667 3.79987 19.9334 4.06654 19.9334H16.4665C16.7332 19.8001 16.8665 19.6667 16.8665 19.4001Z" fill="#464646"/>
<path id="Shape_4_" d="M16.4665 11.1336H4.06654C3.79987 11.1336 3.5332 11.4002 3.5332 11.6669C3.5332 11.9336 3.79987 12.2002 4.06654 12.2002H16.4665C16.7332 12.2002 16.9999 11.9336 16.9999 11.6669C16.8665 11.4002 16.7332 11.1336 16.4665 11.1336Z" fill="#464646"/>
<path id="Shape_5_" d="M16.4665 13.7996H4.06654C3.79987 13.7996 3.5332 14.0663 3.5332 14.3329C3.5332 14.5996 3.79987 14.8663 4.06654 14.8663H16.4665C16.7332 14.8663 16.9999 14.5996 16.9999 14.3329C16.8665 14.0663 16.7332 13.7996 16.4665 13.7996Z" fill="#464646"/>
<path id="Shape_6_" d="M16.4665 16.3333H4.06654C3.79987 16.3333 3.5332 16.6 3.5332 16.8666C3.5332 17.1333 3.79987 17.4 4.06654 17.4H16.4665C16.7332 17.4 16.9999 17.1333 16.9999 16.8666C16.8665 16.6 16.7332 16.3333 16.4665 16.3333Z" fill="#464646"/>
</g>
</svg>